<svg xmlns="http://www.w3.org/2000/svg" xmlns:xlink="http://www.w3.org/1999/xlink" width="1920" zoomAndPan="magnify" viewBox="0 0 1440 809.999993" height="1080" preserveAspectRatio="xMidYMid meet" version="1.0"><defs><clipPath id="2acb651515"><path d="M 667.851562 73.566406 L 1363.910156 73.566406 L 1363.910156 786.046875 L 667.851562 786.046875 Z M 667.851562 73.566406 " clip-rule="nonzero"/></clipPath></defs><path fill="#ffffff" d="M 776.921875 193.820312 C 762.328125 208.277344 749.457031 223.800781 738.117188 240.066406 C 722.898438 210.085938 702.878906 181.902344 677.9375 156.734375 C 549.105469 26.753906 339.28125 25.804688 209.273438 154.609375 C 79.273438 283.414062 78.320312 493.195312 207.148438 623.175781 C 335.976562 753.15625 545.804688 754.109375 675.808594 625.304688 C 690.398438 610.847656 703.269531 595.328125 714.613281 579.054688 C 729.832031 609.042969 749.847656 637.21875 774.792969 662.386719 C 903.625 792.367188 1113.445312 793.316406 1243.449219 664.515625 C 1373.453125 535.707031 1374.410156 325.925781 1245.582031 195.945312 C 1116.753906 65.96875 906.921875 65.015625 776.921875 193.820312 " fill-opacity="1" fill-rule="nonzero"/><path fill="#ffa578" d="M 712.3125 105.773438 L 681.230469 138.46875 C 546.023438 10.460938 331.9375 11.988281 198.734375 143.957031 C 62.878906 278.5625 61.882812 498.578125 196.511719 634.414062 C 305.550781 744.425781 476.160156 768.734375 611.402344 693.523438 C 614.59375 691.75 617.441406 689.589844 619.914062 687.136719 C 632.019531 675.148438 635.210938 656.136719 626.523438 640.515625 C 616.058594 621.707031 592.316406 614.9375 573.5 625.402344 C 468.679688 683.691406 336.429688 664.835938 251.890625 579.542969 C 147.523438 474.242188 148.296875 303.679688 253.617188 199.332031 C 356.839844 97.058594 522.710938 95.839844 627.535156 194.949219 L 599.09375 224.867188 C 587.484375 237.082031 594.628906 257.304688 611.339844 259.519531 L 749.894531 277.84375 C 763.78125 279.679688 775.421875 267.441406 772.878906 253.664062 L 747.550781 116.242188 C 744.488281 99.667969 723.925781 93.558594 712.3125 105.773438 " fill-opacity="1" fill-rule="nonzero"/><path stroke-linecap="round" transform="matrix(0.0475899, 0, 0, -0.0475807, 86.754083, 786.046852)" fill="none" stroke-linejoin="round" d="M 13144.366231 14296.75814 L 12491.407764 13609.767626 C 9650.320219 16300.015255 5151.924767 16267.915196 2353.027122 13494.338771 C -501.685955 10665.428741 -522.616742 6041.542539 2306.240657 3186.771848 C 4597.46412 874.746649 8182.292289 363.854923 11024.118568 1944.557045 C 11091.179167 1981.829236 11151.016593 2027.146966 11202.892112 2078.704093 C 11457.180651 2330.66082 11524.323332 2730.228558 11341.774038 3058.45371 C 11121.795573 3453.834484 10623.150358 3596.109169 10227.681609 3376.170403 C 8025.188266 2151.196042 5246.318511 2547.397789 3469.910322 4339.91104 C 1276.938435 6553.008947 1293.108494 10137.624962 3506.190353 12330.69112 C 5675.112355 14479.917299 9160.457726 14505.695863 11363.115233 12422.722234 L 10765.397626 11793.856634 C 10521.53344 11537.22036 10671.578453 11112.12035 11022.723182 11065.653257 L 13934.072505 10680.616748 C 14225.872298 10641.866805 14470.475218 10899.159858 14417.122232 11188.717165 L 13884.823595 14076.819375 C 13820.635849 14425.076278 13388.476662 14553.476513 13144.366231 14296.75814 Z M 13144.366231 14296.75814 " stroke="#43256d" stroke-width="396.43201" stroke-opacity="1" stroke-miterlimit="10"/><path fill="#61ede5" d="M 738.347656 714.542969 L 769.429688 681.851562 C 904.636719 809.855469 1118.71875 808.328125 1251.929688 676.355469 C 1387.785156 541.753906 1388.777344 321.734375 1254.152344 185.902344 C 1145.109375 75.890625 974.503906 51.582031 839.261719 126.792969 C 836.066406 128.566406 833.21875 130.722656 830.75 133.171875 C 818.644531 145.167969 815.453125 164.179688 824.144531 179.796875 C 834.605469 198.609375 858.34375 205.378906 877.15625 194.914062 C 981.984375 136.621094 1114.230469 155.480469 1198.773438 240.773438 C 1303.136719 346.074219 1302.371094 516.636719 1197.050781 620.988281 C 1093.824219 723.257812 927.953125 724.480469 823.125 625.363281 L 851.566406 595.445312 C 863.179688 583.234375 856.035156 563.007812 839.324219 560.796875 L 700.765625 542.472656 C 686.878906 540.636719 675.242188 552.878906 677.777344 566.65625 L 703.117188 704.074219 C 706.171875 720.644531 726.738281 726.757812 738.347656 714.542969 " fill-opacity="1" fill-rule="nonzero"/><g clip-path="url(#2acb651515)"><path stroke-linecap="round" transform="matrix(0.0798784, 0, 0, -0.079863, 86.754083, 786.046804)" fill="none" stroke-linejoin="round" d="M 8157.270946 895.3313 L 8546.387845 1304.674924 C 10238.999898 -298.118865 12919.099389 -278.994315 14586.673381 1373.445044 C 16287.501048 3058.899931 16300.020079 5813.813336 14614.596688 7514.626557 C 13249.48443 8892.132172 11113.669353 9196.510875 9420.568276 8254.761307 C 9380.614963 8232.555308 9344.965068 8205.507032 9314.009808 8174.839275 C 9162.461075 8024.679767 9122.556665 7786.625588 9231.315743 7591.026932 C 9362.325442 7355.516172 9659.456808 7270.751863 9895.019973 7401.786822 C 11207.31757 8131.650075 12862.910459 7895.552372 13921.306468 6827.56121 C 15227.882478 5509.043337 15218.19979 3373.354485 13899.691579 2066.771113 C 12607.492894 786.208869 10530.898701 770.899447 9218.601103 2011.940882 L 9574.659937 2386.605975 C 9719.998057 2539.50455 9630.555452 2792.770326 9421.399617 2820.454457 L 7686.780348 3049.900143 C 7512.932092 3072.888732 7367.202752 2919.549951 7398.989353 2747.086619 L 7716.219631 1026.41517 C 7754.461357 818.930925 8011.932826 742.383814 8157.270946 895.3313 Z M 8157.270946 895.3313 " stroke="#43256d" stroke-width="236.19099" stroke-opacity="1" stroke-miterlimit="10"/></g><path stroke-linecap="round" transform="matrix(0.0659183, 0, 0, -0.0659056, 86.754083, 786.046852)" fill-opacity="1" fill="#ffd17b" fill-rule="nonzero" stroke-linejoin="round" d="M 16300.00056 5487.013429 L 16300.00056 6820.893105 C 16300.00056 7354.148624 15999.616953 7727.789036 15605.485691 7851.545569 L 13622.799811 7851.545569 L 15771.292227 5271.802716 " stroke="#43256d" stroke-width="286.211" stroke-opacity="1" stroke-miterlimit="10"/><path stroke-linecap="round" transform="matrix(0.0635599, 0, 0, -0.0635476, 86.754083, 786.046852)" fill-opacity="1" fill="#ffd17b" fill-rule="nonzero" stroke-linejoin="round" d="M 14385.605573 7679.524104 L 15393.205975 7679.524104 C 15894.025474 7679.524104 16300.015609 8085.469575 16300.015609 8586.324162 L 13585.425198 8586.324162 C 12747.509742 8586.324162 12068.093917 7906.961754 12068.093917 7069.007688 L 12068.093917 5675.36812 " stroke="#43256d" stroke-width="296.82501" stroke-opacity="1" stroke-miterlimit="10"/><path fill="#ffffff" d="M 1124.683594 407.941406 L 1124.683594 394.992188 C 1124.683594 341.382812 1081.230469 297.9375 1027.613281 297.9375 L 987.578125 297.9375 C 933.960938 297.9375 890.5 341.382812 890.5 394.992188 L 890.5 407.980469 C 863.871094 408.347656 842.398438 430.019531 842.398438 456.726562 C 842.398438 483.441406 863.871094 505.113281 890.5 505.480469 L 890.5 509.460938 C 890.5 568.039062 938.003906 615.519531 996.59375 615.519531 L 1018.597656 615.519531 C 1077.191406 615.519531 1124.683594 568.039062 1124.683594 509.460938 L 1124.683594 505.515625 C 1151.632812 505.515625 1173.480469 483.671875 1173.480469 456.726562 C 1173.480469 429.785156 1151.632812 407.941406 1124.683594 407.941406 " fill-opacity="1" fill-rule="nonzero"/><path stroke-linecap="round" transform="matrix(0.066672, 0, 0, -0.0666592, 86.754083, 786.046852)" fill="none" stroke-linejoin="round" d="M 15568.1003 5672.336033 L 15568.1003 5866.596135 C 15568.1003 6670.885697 14916.297271 7322.638593 14112.104159 7322.638593 L 13511.566537 7322.638593 C 12707.432013 7322.638593 12055.511807 6670.885697 12055.511807 5866.596135 L 12055.511807 5671.75003 C 11656.110346 5666.300199 11333.987825 5341.185555 11333.987825 4940.476482 C 11333.987825 4539.708809 11656.110346 4214.594165 12055.511807 4209.085734 L 12055.511807 4149.371995 C 12055.511807 3270.542811 12768.013077 2558.255771 13646.790032 2558.255771 L 13976.880663 2558.255771 C 14855.716207 2558.255771 15568.1003 3270.542811 15568.1003 4149.371995 L 15568.1003 4208.499731 C 15972.306061 4208.499731 16299.994541 4536.25139 16299.994541 4940.476482 C 16299.994541 5344.642975 15972.306061 5672.336033 15568.1003 5672.336033 Z M 15568.1003 5672.336033 " stroke="#43256d" stroke-width="282.98499" stroke-opacity="1" stroke-miterlimit="10"/><path stroke-linecap="round" transform="matrix(0.0589525, 0, 0, -0.0589411, 86.754083, 786.046852)" fill-opacity="1" fill="#ffffff" fill-rule="nonzero" stroke-linejoin="round" d="M 16300.00874 4424.901642 C 15935.705661 4060.528354 15345.121204 4060.528354 14980.884386 4424.901642 " stroke="#43256d" stroke-width="320.04199" stroke-opacity="1" stroke-miterlimit="10"/><path stroke-linecap="round" transform="matrix(0.0405227, 0, 0, -0.0405149, 86.754083, 786.046852)" fill="none" stroke-linejoin="round" d="M 10889.814754 10718.660999 L 10889.814754 12686.204323 " stroke="#43256d" stroke-width="465.58401" stroke-opacity="1" stroke-miterlimit="10"/><path fill="#ffd17b" d="M 559.410156 239.605469 C 559.410156 256.925781 545.367188 270.972656 528.039062 270.972656 C 510.714844 270.972656 496.664062 256.925781 496.664062 239.605469 C 496.664062 222.28125 510.714844 208.238281 528.039062 208.238281 C 545.367188 208.238281 559.410156 222.28125 559.410156 239.605469 " fill-opacity="1" fill-rule="nonzero"/><path stroke-linecap="round" transform="matrix(0.0405227, 0, 0, -0.0405149, 86.754083, 786.046852)" fill="none" stroke-linejoin="round" d="M 11663.975253 13487.413958 C 11663.975253 13059.909322 11317.429743 12713.200556 10889.814754 12713.200556 C 10462.296162 12713.200556 10115.557858 13059.909322 10115.557858 13487.413958 C 10115.557858 13915.015009 10462.296162 14261.62736 10889.814754 14261.62736 C 11317.429743 14261.62736 11663.975253 13915.015009 11663.975253 13487.413958 Z M 11663.975253 13487.413958 " stroke="#43256d" stroke-width="465.58401" stroke-opacity="1" stroke-miterlimit="10"/><path stroke-linecap="round" transform="matrix(0.0405227, 0, 0, -0.0405149, 86.754083, 786.046852)" fill="none" stroke-linejoin="round" d="M 6579.154912 10614.147011 L 6579.154912 12686.204323 " stroke="#43256d" stroke-width="465.58401" stroke-opacity="1" stroke-miterlimit="10"/><path stroke-linecap="round" transform="matrix(0.0405227, 0, 0, -0.0405149, 86.754083, 786.046852)" fill="none" stroke-linejoin="round" d="M 10889.814754 10614.147011 L 10889.814754 12686.204323 " stroke="#43256d" stroke-width="465.58401" stroke-opacity="1" stroke-miterlimit="10"/><path fill="#ffa578" d="M 566.566406 491.566406 L 621.644531 491.566406 C 644.101562 491.566406 662.472656 473.199219 662.472656 450.75 C 662.472656 428.296875 644.101562 409.929688 621.644531 409.929688 L 566.566406 409.929688 L 566.566406 491.566406 " fill-opacity="1" fill-rule="nonzero"/><path stroke-linecap="round" transform="matrix(0.0405227, 0, 0, -0.0405149, 86.754083, 786.046852)" fill="none" stroke-linejoin="round" d="M 11840.573688 7268.445983 L 13199.764702 7268.445983 C 13753.948329 7268.445983 14207.30119 7721.789871 14207.30119 8275.887557 C 14207.30119 8830.081658 13753.948329 9283.425545 13199.764702 9283.425545 L 11840.573688 9283.425545 Z M 11840.573688 7268.445983 " stroke="#43256d" stroke-width="465.58401" stroke-opacity="1" stroke-miterlimit="10"/><path fill="#ffa578" d="M 325.207031 491.566406 L 270.128906 491.566406 C 247.671875 491.566406 229.300781 473.199219 229.300781 450.75 C 229.300781 428.296875 247.671875 409.929688 270.128906 409.929688 L 325.207031 409.929688 L 325.207031 491.566406 " fill-opacity="1" fill-rule="nonzero"/><path stroke-linecap="round" transform="matrix(0.0405227, 0, 0, -0.0405149, 86.754083, 786.046852)" fill="none" stroke-linejoin="round" d="M 5884.42515 7268.445983 L 4525.234136 7268.445983 C 3971.050509 7268.445983 3517.697648 7721.789871 3517.697648 8275.887557 C 3517.697648 8830.081658 3971.050509 9283.425545 4525.234136 9283.425545 L 5884.42515 9283.425545 Z M 5884.42515 7268.445983 " stroke="#43256d" stroke-width="465.58401" stroke-opacity="1" stroke-miterlimit="10"/><path fill="#ffd17b" d="M 384.734375 239.605469 C 384.734375 256.925781 370.6875 270.972656 353.359375 270.972656 C 336.035156 270.972656 321.988281 256.925781 321.988281 239.605469 C 321.988281 222.28125 336.035156 208.238281 353.359375 208.238281 C 370.6875 208.238281 384.734375 222.28125 384.734375 239.605469 " fill-opacity="1" fill-rule="nonzero"/><path stroke-linecap="round" transform="matrix(0.0405227, 0, 0, -0.0405149, 86.754083, 786.046852)" fill="none" stroke-linejoin="round" d="M 7353.411807 13487.413958 C 7353.411807 13059.909322 7006.7699 12713.200556 6579.154912 12713.200556 C 6151.63632 12713.200556 5804.994413 13059.909322 5804.994413 13487.413958 C 5804.994413 13915.015009 6151.63632 14261.62736 6579.154912 14261.62736 C 7006.7699 14261.62736 7353.411807 13915.015009 7353.411807 13487.413958 Z M 7353.411807 13487.413958 " stroke="#43256d" stroke-width="465.58401" stroke-opacity="1" stroke-miterlimit="10"/><path fill="#ffffff" d="M 563.253906 559.882812 L 329.046875 559.882812 C 306.171875 559.882812 287.460938 541.175781 287.460938 518.308594 L 287.460938 369.101562 C 287.460938 346.234375 306.171875 327.523438 329.046875 327.523438 L 563.253906 327.523438 C 586.125 327.523438 604.832031 346.234375 604.832031 369.101562 L 604.832031 518.308594 C 604.832031 541.175781 586.125 559.882812 563.253906 559.882812 " fill-opacity="1" fill-rule="nonzero"/><path stroke-linecap="round" transform="matrix(0.0405227, 0, 0, -0.0405149, 86.754083, 786.046852)" fill="none" stroke-linejoin="round" d="M 11758.829434 5582.241976 L 5979.182935 5582.241976 C 5414.68488 5582.241976 4952.945521 6043.973978 4952.945521 6608.388082 L 4952.945521 10291.156364 C 4952.945521 10855.570468 5414.68488 11317.398885 5979.182935 11317.398885 L 11758.829434 11317.398885 C 12323.231093 11317.398885 12784.874055 10855.570468 12784.874055 10291.156364 L 12784.874055 6608.388082 C 12784.874055 6043.973978 12323.231093 5582.241976 11758.829434 5582.241976 Z M 11758.829434 5582.241976 " stroke="#43256d" stroke-width="465.58401" stroke-opacity="1" stroke-miterlimit="10"/><path fill="#ffffff" d="M 538.589844 423.054688 C 538.589844 440.378906 524.546875 454.421875 507.21875 454.421875 C 489.890625 454.421875 475.84375 440.378906 475.84375 423.054688 C 475.84375 405.730469 489.890625 391.6875 507.21875 391.6875 C 524.546875 391.6875 538.589844 405.730469 538.589844 423.054688 " fill-opacity="1" fill-rule="nonzero"/><path stroke-linecap="round" transform="matrix(0.0405227, 0, 0, -0.0405149, 86.754083, 786.046852)" fill="none" stroke-linejoin="round" d="M 11150.18177 8959.470747 C 11150.18177 8531.869696 10803.63626 8185.257345 10376.021271 8185.257345 C 9948.406283 8185.257345 9601.764376 8531.869696 9601.764376 8959.470747 C 9601.764376 9387.071798 9948.406283 9733.684149 10376.021271 9733.684149 C 10803.63626 9733.684149 11150.18177 9387.071798 11150.18177 8959.470747 Z M 11150.18177 8959.470747 " stroke="#43256d" stroke-width="465.58401" stroke-opacity="1" stroke-miterlimit="10"/><path fill="#ffffff" d="M 416.105469 423.054688 C 416.105469 440.378906 402.058594 454.421875 384.734375 454.421875 C 367.40625 454.421875 353.359375 440.378906 353.359375 423.054688 C 353.359375 405.730469 367.40625 391.6875 384.734375 391.6875 C 402.058594 391.6875 416.105469 405.730469 416.105469 423.054688 " fill-opacity="1" fill-rule="nonzero"/><path stroke-linecap="round" transform="matrix(0.0405227, 0, 0, -0.0405149, 86.754083, 786.046852)" fill="none" stroke-linejoin="round" d="M 8127.572306 8959.470747 C 8127.572306 8531.869696 7780.930399 8185.257345 7353.411807 8185.257345 C 6925.796819 8185.257345 6579.154912 8531.869696 6579.154912 8959.470747 C 6579.154912 9387.071798 6925.796819 9733.684149 7353.411807 9733.684149 C 7780.930399 9733.684149 8127.572306 9387.071798 8127.572306 8959.470747 Z M 8127.572306 8959.470747 " stroke="#43256d" stroke-width="465.58401" stroke-opacity="1" stroke-miterlimit="10"/></svg>